<svg width="647" height="473" viewBox="0 0 647 473" fill="none" xmlns="http://www.w3.org/2000/svg">
<g clip-path="url(#clip0)">
<path d="M650.953 -2.27856H-3.11972V473.767H650.953V-2.27856Z" fill="#27003D"/>
<path d="M490.315 384.747C489.923 384.747 489.525 384.785 489.127 384.796C486.549 384.863 482.529 383.555 478.636 385.271C476.704 386.115 475.147 388.107 475.213 390.308C475.256 391.022 475.442 391.719 475.76 392.36C476.077 393.001 476.521 393.571 477.063 394.038C480.376 397.133 488.658 393.712 494.914 394.198C507.001 395.147 507.89 398.06 518.784 397.624C524.537 397.381 533.692 393.955 538.982 390.407C554.641 379.858 565.827 367.875 571.056 349.74C572.326 345.277 572.967 339.942 569.908 336.438C569.247 335.689 568.446 335.076 567.55 334.634C567.191 334.458 566.823 334.303 566.446 334.171C563.304 333.067 559.433 333.669 556.463 335.39C552.255 337.834 549.368 341.972 546.414 345.834C539.933 354.307 532.525 362.029 524.327 368.857C514.543 376.995 502.981 384.035 490.32 384.747" fill="url(#paint0_linear)"/>
<path d="M426.06 402.104C423.299 399.715 418.75 400.769 415.139 401.966C406.387 404.885 394.957 410.97 385.659 411.583C382.147 411.814 378.685 410.876 379.696 407.29C380.209 405.48 382.28 404.173 384.582 403.229C386.439 402.508 388.345 401.921 390.286 401.475C394.604 400.405 399.121 399.5 402.721 397.116C406.321 394.733 408.761 390.352 407.077 386.634C405.421 383.031 400.562 381.376 396.255 381.757C391.948 382.137 388.033 384.079 384.157 385.817C357.902 397.58 327.351 401.436 298.507 396.62C295.47 396.112 292.4 395.516 289.324 395.787C286.249 396.057 283.113 397.398 281.682 399.853C279.65 403.334 281.848 407.853 285.432 410.104C289.015 412.355 293.57 412.863 297.927 413.177C312.954 414.213 328.051 413.428 342.889 410.838C344.689 410.476 346.512 410.235 348.344 410.115C349.52 410.055 350.699 410.147 351.85 410.391C354.777 411.042 357.493 413.381 357.223 416.085C356.737 421 347.588 423.053 348.477 427.924C349.15 431.638 354.81 432.184 358.968 431.671C379.549 429.145 399.644 423.594 418.601 415.196C421.488 413.911 424.459 412.471 426.298 410.087C428.136 407.704 428.396 404.101 426.06 402.104Z" fill="url(#paint1_linear)"/>
<path d="M219.758 147.623C216.191 145.858 211.768 148.175 209.096 150.934C206.424 153.692 204.243 157.141 200.493 158.564C195.027 160.638 189.014 157.549 183.167 156.688C172.615 155.138 162.494 161.036 154.802 167.723C145.534 175.708 137.902 185.414 132.33 196.302C129.238 202.404 126.847 209.228 128.564 215.75C129.285 218.216 130.604 220.467 132.405 222.302C134.205 224.138 136.43 225.501 138.884 226.271C140.789 226.852 142.807 226.963 144.764 226.596C149.419 225.692 153.013 222.183 154.88 218.221C158.099 211.413 159.562 204.748 163.372 197.995C167.74 190.271 173.863 183.187 182.234 178.685C188.23 175.447 195.016 173.67 201.559 171.397L203.282 170.785C210.327 168.208 217.334 164.534 221.111 158.592C223.331 155.033 223.723 149.599 219.758 147.623Z" fill="url(#paint2_linear)"/>
<path d="M419.175 98.1452C416.74 95.3535 412.969 93.8253 409.297 92.5287C396.658 88.0764 399.507 89.0308 386.167 85.9688C384.56 85.6047 381.86 85.1798 380.27 84.8102C379.245 84.5898 378.255 84.2316 377.327 83.7454C374.991 82.4875 373.34 79.8227 374.362 77.5551C376.223 73.4282 386.056 77.6654 386.509 70.0076C386.741 65.9855 381.181 64.2421 377.454 63.6959C358.852 60.998 349.691 60.3856 329.814 61.489C326.912 61.5807 324.093 62.4745 321.67 64.0711C319.384 65.6876 318.611 67.5193 320.041 69.7979C321.741 72.5179 325.474 72.6779 328.941 72.6393C337.776 72.551 340.752 72.0876 348.957 73.7427C352.055 74.3772 354.247 76.0323 353.551 79.2599C353.087 81.3675 350.15 82.0185 346.975 82.1344C344.976 82.3716 327.567 80.722 326.192 80.6889C322.161 80.5895 318.003 80.2971 314.193 81.4944C310.383 82.6916 307.015 85.9081 307.352 89.5108C307.694 93.0087 311.427 95.5798 315.259 96.286C319.091 96.9922 323.028 96.2363 326.854 95.657C352.96 91.7398 380.447 95.657 403.913 106.691C406.381 107.844 408.883 109.097 411.588 109.582C414.294 110.068 417.419 109.671 419.374 107.889C422.173 105.378 421.604 100.965 419.175 98.1452Z" fill="url(#paint3_linear)"/>
<path d="M555.469 265.244C557.678 260.897 558.263 255.484 554.448 251.694C553.553 250.819 552.474 250.154 551.29 249.747C550.105 249.341 548.845 249.203 547.601 249.344C541.163 250.155 540.688 257.443 537.204 260.831C536.338 261.701 535.215 262.272 534.001 262.458C532.951 262.6 531.882 262.489 530.883 262.133C529.885 261.776 528.987 261.186 528.264 260.411C526.608 258.613 525.973 256.439 525.669 254.21L500.336 269.928C498.437 276.159 495.355 281.965 491.259 287.032C485.837 293.619 478.454 298.883 473.932 305.994C471.873 309.227 470.409 312.83 468.72 316.267C466.876 320.019 464.772 323.572 461.338 326.198C458.185 328.637 454.226 330.022 450.515 331.716C446.805 333.409 443.105 335.578 441.245 338.932C439.384 342.286 440.466 346.033 443.718 348.863C446.97 351.693 458.776 349.315 452.404 357.315C448.367 362.386 439.152 366.446 433.669 370.226C428.313 373.906 422.317 379.147 424.155 384.979C425.26 388.421 428.992 390.788 432.902 391.472C435.08 391.814 437.299 391.814 439.478 391.472C451.349 389.817 462.37 384.923 471.735 378.165L502.567 355.908C504.903 354.22 508.37 355.682 508.42 358.369C507.045 365.31 516.84 363.886 519.126 361.972C534.493 349.023 542.836 332.477 552.67 315.732C554.442 312.714 556.148 309.189 554.779 306.005C553.47 302.96 549.81 301.36 547.336 298.977C540.881 292.775 543.399 282.535 548.44 275.357C550.814 271.997 553.653 268.869 555.469 265.244ZM527.939 282.601C527.607 285.36 524.963 288.361 521.136 293.801C521.136 293.801 513.704 303.644 505.808 303.732C498.078 303.837 496.477 301.685 497.714 298.491C499.011 295.181 503.406 290.673 507.2 286.403C510.595 282.59 513.119 278.778 515.482 276.356V276.384C518.287 273.504 520.86 272.593 524.394 275.992C527.149 278.646 528.182 280.555 527.939 282.601Z" fill="url(#paint4_linear)"/>
<path d="M537.248 164.892C538.131 167.491 538.932 170.211 540.826 172.33C542.72 174.448 546.082 175.8 548.843 174.674C551.869 173.438 552.791 169.797 551.902 166.917C551.013 164.037 548.843 161.654 547.01 159.154C545.177 156.655 543.697 153.637 544.442 150.746C545.464 146.763 550.257 144.418 551.902 140.6C553.636 136.567 551.438 132.082 548.992 128.357C541.673 117.353 532.123 108.008 520.959 100.926C516.542 98.0902 511.694 95.5302 506.327 94.7081C500.96 93.8861 494.958 95.0723 491.369 98.7467C479.989 110.405 505.775 121.246 512.903 127.889C524.079 138.288 532.571 151.044 537.248 164.892Z" fill="url(#paint5_linear)"/>
<path d="M591.508 325.305C590.674 325.89 589.41 326.96 588.195 326.623C586.787 326.21 586.539 323.313 587.582 322.463C596.417 315.153 601.883 296.395 607.35 299.12C614.24 302.552 596.329 321.912 591.508 325.305Z" fill="url(#paint6_linear)"/>
<path d="M125.836 383.037C125.074 382.336 124.257 381.382 124.732 380.482C125.384 379.285 127.388 379.82 128.63 380.543C132.733 382.937 155.614 397.094 151.694 401.878C147.718 406.761 129.011 385.966 125.836 383.037Z" fill="url(#paint7_linear)"/>
<path d="M477.963 403.594C479.553 404.614 479.421 406.81 478.565 408.471C477.405 410.711 474.584 412.488 471.884 413.63C470.251 414.351 468.445 414.585 466.682 414.303C461.928 413.37 463.336 408.609 466.925 406.402C469.247 404.951 471.833 403.974 474.534 403.528C475.67 403.319 476.836 403.342 477.963 403.594Z" fill="url(#paint8_linear)"/>
<path d="M260.496 111.199C259.248 113.632 256.333 115.359 253.578 116.369C251.897 117.02 250.048 117.094 248.321 116.578C243.578 115.012 245.185 109.721 248.873 107.591C251.237 106.187 253.89 105.341 256.631 105.119C257.254 104.999 257.895 105.021 258.508 105.184C259.121 105.346 259.689 105.645 260.17 106.057C261.501 107.127 261.424 109.395 260.496 111.199Z" fill="url(#paint9_linear)"/>
<path d="M548.092 230.795C550.235 229.113 550.698 226.337 550.936 223.799C551.731 215.298 551.509 206.732 550.273 198.282C550.014 196.495 549.682 194.647 548.567 193.135C547.452 191.623 545.337 190.547 543.393 191.044C540.671 191.739 539.882 194.779 539.561 197.289C538.457 205.918 537.353 214.549 536.248 223.182C536.061 224.66 535.884 226.222 536.558 227.595C537.888 230.221 545.486 232.826 548.092 230.795Z" fill="url(#paint10_linear)"/>
<path d="M585.567 383.478C587.776 380.168 588.709 377.851 591.05 374.469C592.198 372.813 594.291 372.813 595.434 373.155C596.34 373.431 596.08 375.82 595.738 376.62C593.582 381.491 590.014 385.604 585.495 388.427C584.247 389.244 582.657 387.909 583.452 386.722C584.137 385.702 584.794 384.648 585.567 383.478Z" fill="url(#paint11_linear)"/>
<path d="M590.873 177.345C589.161 177.863 588.819 179.888 588.924 181.505C589.343 187.417 591.554 193.061 595.263 197.687C595.95 198.653 596.837 199.46 597.863 200.054C604.644 203.546 602.584 192.462 601.618 189.714C600.563 186.729 595.296 175.999 590.873 177.345Z" fill="url(#paint12_linear)"/>
<path d="M578.764 132.004C577.794 130.948 576.64 130.077 575.358 129.433C574.69 129.108 573.96 128.934 573.217 128.922C572.475 128.911 571.739 129.063 571.062 129.367C570.382 129.768 569.834 130.357 569.483 131.063C569.132 131.769 568.994 132.562 569.085 133.345C569.212 134.868 569.952 136.291 570.681 137.671C572.293 140.716 572.47 141.119 574.082 144.164C575.142 146.173 576.733 148.49 579.206 148.44C580.415 148.44 581.553 147.75 582.762 147.822C585.357 147.982 590.183 156.286 591.326 158.255C592.331 159.999 595.064 158.586 594.755 157.439C592.204 148.076 585.677 138.835 578.764 132.004Z" fill="url(#paint13_linear)"/>
<path d="M102.822 385.597C104.623 387.252 105.191 391.075 102.905 393.63C102.237 394.34 101.399 394.869 100.47 395.167C99.5406 395.465 98.551 395.523 97.5936 395.335C92.0057 393.9 86.8431 381.839 85.4019 376.339C84.9768 374.684 80.3442 370.27 78.3675 366.496C76.9208 363.738 80.3884 359.953 82.2326 362.827C84.7504 366.789 97.8862 381.056 102.822 385.597Z" fill="url(#paint14_linear)"/>
<path d="M390.286 401.475C394.604 400.405 399.12 399.5 402.72 397.117C406.321 394.733 408.761 390.353 407.077 386.634C405.421 383.031 400.562 381.376 396.255 381.757C391.948 382.138 388.033 384.08 384.157 385.817C357.902 397.58 327.351 401.437 298.507 396.62C295.47 396.113 292.4 395.517 289.324 395.787C286.249 396.057 283.112 397.398 281.682 399.853C279.65 403.335 281.848 407.853 285.432 410.104C289.015 412.355 293.57 412.863 297.927 413.177C312.954 414.213 328.051 413.428 342.889 410.838C344.689 410.477 346.512 410.235 348.344 410.115C357.052 408.719 376.73 405.034 384.604 403.23C386.453 402.509 388.352 401.923 390.286 401.475Z" fill="url(#paint15_linear)"/>
<path d="M426.06 402.104C423.299 399.715 418.75 400.769 415.139 401.966C406.387 404.885 394.957 410.97 385.659 411.583C382.147 411.814 378.685 410.876 379.696 407.29C380.209 405.481 382.28 404.173 384.582 403.23C376.709 405.034 357.03 408.719 348.322 410.115C349.498 410.055 350.677 410.147 351.828 410.391C354.755 411.042 357.471 413.381 357.201 416.085C356.715 421 347.566 423.053 348.455 427.925C349.128 431.638 354.788 432.184 358.946 431.671C379.527 429.145 399.622 423.594 418.579 415.196C421.466 413.911 424.437 412.471 426.276 410.087C428.114 407.704 428.396 404.101 426.06 402.104Z" fill="url(#paint16_linear)"/>
<path d="M153.196 190.382C143.494 206.211 140.01 218.955 138.84 226.244C140.745 226.824 142.762 226.936 144.72 226.569C149.375 225.664 152.969 222.155 154.836 218.194C158.055 211.386 159.518 204.721 163.328 197.968C167.695 190.244 173.819 183.16 182.189 178.658C188.186 175.419 194.972 173.643 201.515 171.37C175.895 172.92 164.824 171.403 153.196 190.382Z" fill="url(#paint17_linear)"/>
<path d="M128.542 215.722C129.263 218.189 130.582 220.44 132.382 222.275C134.183 224.11 136.408 225.474 138.862 226.244C140.01 218.955 143.494 206.211 153.218 190.382C164.846 171.403 175.917 172.92 201.548 171.359L203.271 170.746C210.316 168.17 217.323 164.495 221.1 158.553C223.353 155.006 223.745 149.599 219.758 147.624C216.191 145.858 211.768 148.175 209.096 150.934C206.424 153.693 204.243 157.141 200.493 158.564C195.027 160.639 189.014 157.549 183.167 156.688C172.615 155.138 162.494 161.036 154.802 167.723C145.534 175.709 137.902 185.414 132.33 196.302C129.204 202.376 126.825 209.201 128.542 215.722Z" fill="url(#paint18_linear)"/>
<path d="M64.9611 90.7415C65.9053 90.3056 67.2967 89.605 68.274 90.0739C69.5716 90.7029 68.1305 92.0656 67.0648 92.9429C65.2317 94.4546 61.4163 98.9345 57.3966 104.01C51.8253 111.045 46.243 115.47 43.3939 113.428C38.0987 109.649 59.4174 93.2794 64.9611 90.7415Z" fill="url(#paint19_linear)"/>
<path d="M48.7277 253.239C50.5278 253.328 51.6045 251.551 52.118 250.001C53.9426 244.428 53.9889 238.426 52.2505 232.826C51.9664 231.701 51.4323 230.654 50.6879 229.764C45.6357 224.246 43.405 235.281 43.2835 238.161C43.151 241.295 44.0676 253.035 48.7277 253.239Z" fill="url(#paint20_linear)"/>
<path d="M38.5846 290.695C39.1118 291.998 39.8841 293.187 40.8595 294.199C41.3803 294.722 42.0113 295.123 42.7067 295.372C43.402 295.621 44.1442 295.712 44.8792 295.639C45.6645 295.485 46.3911 295.115 46.9767 294.57C47.5622 294.025 47.9833 293.327 48.1921 292.555C48.6339 291.087 48.4572 289.52 48.275 287.992C47.8719 284.627 45.851 275.854 45.4534 272.505C45.1884 270.298 44.5369 267.601 42.1902 266.85C41.0362 266.481 39.7386 266.707 38.6122 266.298C37.011 265.692 36.9558 263.854 36.4422 262.365C35.6913 260.268 35.5588 258.365 34.8465 256.246C34.1121 254.039 31.3403 255.192 31.2189 256.362C30.1863 265.929 34.576 282.072 38.5846 290.695Z" fill="url(#paint21_linear)"/>
<path d="M259.729 60.6892C257.382 59.3102 254.807 58.3628 252.125 57.892C209.162 50.4051 178.17 77.3125 162.643 74.747C157.624 73.9139 154.322 72.9705 155.106 67.0229C156.89 58.9733 149.314 56.2368 143.511 57.5665C114.296 64.1981 85.5289 84.2586 73.7127 106.978C71.8354 110.598 69.6102 120.893 79.4055 121.196C85.2804 121.378 94.3689 113.583 99.6972 113.031C114.274 111.525 106.323 121.472 100.029 125.56C90.9124 131.502 70.6759 142.664 65.3973 146.046C60.8972 148.937 56.0106 151.348 51.9688 154.763C47.1485 158.862 43.6313 164.87 46.0552 170.862C46.6437 172.261 47.5579 173.5 48.7219 174.475C49.8858 175.45 51.2659 176.133 52.7474 176.467C60.6101 178.255 64.9776 170.029 70.7753 167.59C72.2022 166.948 73.7913 166.755 75.3306 167.039C76.5955 167.299 77.7721 167.88 78.7469 168.727C79.7218 169.573 80.462 170.656 80.8963 171.872C81.9233 174.757 81.4485 177.632 80.5705 180.44C80.2503 181.455 79.8859 182.459 79.5214 183.452C74.8207 196.19 70.1256 208.931 65.4359 221.675C63.6359 226.558 61.8138 231.606 62.4156 236.737C63.0175 241.868 66.7611 247.049 72.3544 248.009C77.241 248.842 82.2215 246.265 85.2197 242.701C88.2179 239.137 89.6369 234.724 90.9787 230.42C95.3407 216.473 99.6144 202.398 106.665 189.372C113.716 176.346 123.826 164.269 137.586 156.727C147.299 151.397 158.568 148.451 167.541 142.123C171.61 139.254 175.188 135.706 178.943 132.451C183.034 128.887 187.33 125.671 192.68 124.06C197.606 122.576 202.906 122.647 208.08 122.267C213.254 121.886 218.676 120.92 222.574 117.853C226.472 114.785 227.737 109.45 224.904 105.345C221.967 101.092 207.738 98.024 219.294 91.4696C226.61 87.3207 239.139 85.6379 247.697 84.8876C257.393 84.038 265.488 79.3704 266.415 71.8615C266.984 67.4257 263.892 63.1002 259.729 60.6892ZM118.272 150.305C112.347 153.284 102.011 161.825 98.0187 163.629C93.2701 165.77 88.8584 165.091 86.2633 161.378C83.9994 158.134 84.2424 152.446 85.8933 149.571C94.1757 135.149 110.431 132.44 119.613 135.657C128.603 138.807 124.892 146.978 118.272 150.305Z" fill="url(#paint22_linear)"/>
<path d="M326.186 80.7056C322.155 80.6063 317.998 80.3139 314.188 81.5111C310.378 82.7084 307.01 85.9249 307.347 89.5276C307.689 93.0255 311.422 95.5965 315.254 96.3027C319.085 97.0089 323.022 96.2531 326.849 95.6738C352.955 91.7566 380.441 95.6738 403.908 106.708C406.376 107.861 408.877 109.114 411.583 109.599C414.288 110.085 417.413 109.687 419.368 107.905C422.129 105.384 421.577 100.965 419.147 98.1731C416.718 95.3814 412.941 93.8531 409.269 92.5565C396.63 88.1042 399.479 89.0586 386.139 85.9966C384.533 85.6325 381.833 85.2076 380.242 84.838C372.319 83.9773 354.263 82.4877 346.942 82.1787C344.971 82.3884 327.561 80.7387 326.186 80.7056Z" fill="url(#paint23_linear)"/>
<path d="M320.035 69.8257C321.736 72.5457 325.468 72.7057 328.936 72.667C337.77 72.5788 340.746 72.1153 348.952 73.7705C352.049 74.405 354.241 76.0601 353.545 79.2877C353.082 81.3952 350.144 82.0463 346.969 82.1621C354.291 82.4711 372.368 83.9607 380.27 84.8214C379.245 84.601 378.255 84.2428 377.327 83.7566C374.991 82.4987 373.34 79.8339 374.362 77.5663C376.223 73.4394 386.056 77.6767 386.509 70.0188C386.741 65.9968 381.181 64.2533 377.454 63.7071C358.852 61.0092 349.691 60.3968 329.814 61.5002C326.912 61.5919 324.093 62.4857 321.669 64.0823C319.378 65.7154 318.594 67.5471 320.035 69.8257Z" fill="url(#paint24_linear)"/>
<path d="M364.517 456.614C371.077 456.344 377.675 455.72 383.842 453.999C390.01 452.278 395.841 449.375 399.7 445.238C401.053 443.787 402.086 441.618 400.479 440.333C399.17 439.285 396.973 439.555 395.173 439.952C388.608 441.403 382.302 443.505 375.803 445.127C359.299 449.198 342.188 450.206 325.319 448.101C322.525 447.753 316.695 447.428 316.689 450.86C316.689 453.193 321.222 453.398 323.37 453.784C331.977 455.342 340.681 456.301 349.421 456.653C354.446 456.824 359.492 456.824 364.517 456.614Z" fill="url(#paint25_linear)"/>
<path d="M497.714 298.48C499.011 295.17 503.406 290.662 507.2 286.392C510.595 282.58 513.119 278.767 515.482 276.345C518.795 271.694 521.699 266.856 523.615 261.631C524.533 259.135 525.215 256.558 525.653 253.935C525.548 253.096 525.481 252.252 525.415 251.413C524.624 240.68 523.83 229.951 523.035 219.226C522.732 215.116 522.384 210.856 520.214 207.226C518.044 203.596 513.505 200.754 509.011 201.565C505.107 202.271 502.274 205.538 501.247 208.997C500.22 212.456 500.651 216.114 501.093 219.673C502.545 231.209 504.102 242.812 503.241 254.392C502.379 265.973 498.934 277.68 491.259 287.016C485.837 293.603 478.454 298.867 473.932 305.978C471.873 309.211 470.409 312.814 468.72 316.251C476.511 314.701 483.722 310.828 489.702 306.006C492.547 303.69 495.224 301.175 497.714 298.48Z" fill="url(#paint26_linear)"/>
<path d="M555.469 265.245C557.678 260.897 558.263 255.485 554.448 251.694C553.553 250.819 552.474 250.154 551.289 249.748C550.105 249.341 548.845 249.203 547.601 249.344C541.163 250.155 540.688 257.443 537.204 260.831C536.338 261.701 535.215 262.272 534.001 262.458C532.951 262.601 531.882 262.489 530.883 262.133C529.885 261.777 528.987 261.186 528.264 260.412C526.53 258.547 525.923 256.279 525.63 253.962C525.198 256.585 524.521 259.161 523.61 261.658C521.694 266.883 518.773 271.722 515.476 276.373C518.281 273.493 520.854 272.583 524.388 275.981C527.149 278.646 528.181 280.555 527.938 282.602C527.607 285.36 524.962 288.362 521.136 293.802C521.136 293.802 513.704 303.644 505.808 303.733C498.078 303.837 496.477 301.686 497.713 298.491C495.229 301.188 492.553 303.703 489.707 306.017C483.722 310.839 476.511 314.712 468.725 316.262C466.881 320.014 464.777 323.567 461.343 326.193C458.19 328.632 454.231 330.016 450.521 331.71C446.81 333.404 443.111 335.572 441.25 338.927C439.389 342.281 440.471 346.027 443.724 348.858C446.976 351.688 458.781 349.31 452.409 357.31C448.373 362.38 439.157 366.441 433.674 370.22C428.318 373.9 422.322 379.142 424.161 384.973C425.265 388.416 428.998 390.783 432.907 391.467C435.086 391.809 437.304 391.809 439.483 391.467C451.354 389.812 462.375 384.918 471.74 378.16L502.572 355.903C504.908 354.215 508.376 355.677 508.425 358.364C507.05 365.304 516.846 363.881 519.132 361.967C534.498 349.018 542.841 332.472 552.675 315.727C554.448 312.709 556.154 309.184 554.784 306C553.476 302.955 549.815 301.355 547.341 298.971C540.887 292.77 543.404 282.53 548.446 275.352C550.814 271.998 553.652 268.869 555.469 265.245Z" fill="url(#paint27_linear)"/>
<path d="M569.88 336.439C569.219 335.69 568.418 335.077 567.523 334.635C557.805 354.535 546.403 396.51 490.287 384.747C489.895 384.747 489.497 384.786 489.1 384.797C486.521 384.863 482.502 383.555 478.609 385.271C476.676 386.115 475.119 388.107 475.186 390.309C475.228 391.022 475.414 391.72 475.732 392.361C476.05 393.001 476.493 393.572 477.035 394.038C480.348 397.133 488.631 393.713 494.886 394.198C506.973 395.147 507.862 398.06 518.756 397.624C524.51 397.382 533.664 393.955 538.954 390.408C554.613 379.859 565.8 367.876 571.029 349.741C572.299 345.277 572.939 339.942 569.88 336.439Z" fill="url(#paint28_linear)"/>
<path d="M567.522 334.635C567.165 334.456 566.796 334.301 566.418 334.171C563.276 333.068 559.406 333.669 556.435 335.39C552.228 337.835 549.34 341.972 546.386 345.834C539.906 354.308 532.498 362.03 524.3 368.858C514.516 376.996 502.953 384.036 490.292 384.747C546.403 396.51 557.804 354.535 567.522 334.635Z" fill="url(#paint29_linear)"/>
<path d="M578.107 300.444C590.503 304.748 612.446 266.138 615.566 248.71C618.685 231.281 609.873 208.346 594.081 209.08C578.29 209.813 587.107 196.054 580.498 185.411C573.889 174.768 561.769 177.339 562.503 189.449C563.238 201.56 564.933 230.492 572.9 235.562C580.868 240.632 587.306 234.128 588.024 240.699C588.814 247.976 564.883 295.86 578.107 300.444Z" fill="url(#paint30_linear)"/>
<path d="M367.129 29.0978C337.594 20.5958 286.663 27.1778 260.065 33.8647C251.783 35.9446 250.303 39.9722 251.954 41.6936C253.688 43.4977 256.642 42.9846 259.072 42.3832C288.844 35.0619 339.979 33.3957 375.742 45.4232C378.376 46.3114 382.368 46.6645 383.82 43.5915C384.963 41.1529 383.207 37.0701 381.435 35.5143C377.432 31.9998 372.153 30.5433 367.129 29.0978Z" fill="url(#paint31_linear)"/>
<path d="M93.988 275.645C93.3199 272.334 92.6904 268.803 90.5149 266.194C88.3394 263.584 84.0161 262.425 81.5314 264.743C79.7534 266.398 79.5491 269.129 79.7258 271.551C80.6203 283.854 88.1848 295.827 85.2474 307.793C84.3529 311.462 82.4866 314.966 82.4314 318.723C82.3541 323.661 85.3523 328.063 88.3615 331.964C94.9049 340.473 102.099 348.462 109.879 355.859C112.778 358.618 115.853 361.376 119.591 362.783C123.33 364.19 127.918 364.085 130.966 361.487C132.059 360.524 132.892 359.301 133.388 357.932C133.884 356.563 134.027 355.091 133.804 353.652C133.053 349.034 127.73 344.72 124.903 341.216C113.716 327.405 105.029 311.748 99.2335 294.949C97.0551 288.639 95.3027 282.189 93.988 275.645Z" fill="url(#paint32_linear)"/>
<path d="M64.8562 134.509C64.1612 134.166 63.4155 133.937 62.6476 133.831C57.9708 133.191 53.6143 136.744 51.0523 140.711C31.771 170.735 31.0091 200.98 33.6097 209.124C35.3214 214.503 41.3399 219.171 45.6467 219.606C50.3511 220.064 55.2708 216.699 59.4838 221.035C60.2549 221.845 60.8706 222.79 61.3003 223.822C62.7856 227.314 62.0126 231.027 62.1286 234.707C62.2445 238.387 63.3212 242.155 66.1372 244.693C66.8104 245.327 67.617 245.802 68.498 246.084C69.3789 246.365 70.3118 246.446 71.2281 246.321C71.8529 246.225 72.4553 246.018 73.0061 245.708C75.2147 244.461 76.2583 241.73 76.8712 239.209C78.489 232.456 78.3068 226.045 77.2024 219.275C75.9877 211.849 76.954 204.666 72.5864 198.007C71.2336 195.943 69.4281 194.078 67.1366 193.168C66.8479 193.054 66.5529 192.956 66.2532 192.876C64.4989 192.446 62.9547 191.407 61.8958 189.944C60.8369 188.482 60.3324 186.692 60.4721 184.892C61.2168 176.002 63.2497 167.268 66.5072 158.961C68.3183 154.371 70.5324 149.759 70.549 144.832C70.549 140.694 68.4176 136.242 64.8397 134.52" fill="url(#paint33_linear)"/>
<path d="M70.3612 221.973C69.5275 217.493 68.2354 212.594 64.4642 210.051C60.2016 207.16 54.1775 208.236 49.8376 205.466C46.8173 203.535 45.1222 199.982 44.6584 196.429C44.1945 192.876 44.813 189.256 45.5308 185.77C49.2345 167.774 55.7565 150.474 64.8562 134.509C64.1608 134.167 63.4152 133.938 62.6476 133.831C57.9708 133.191 53.6143 136.744 51.0523 140.711C31.771 170.735 31.0091 200.98 33.6097 209.124C35.3214 214.503 41.3399 219.171 45.6467 219.606C50.3511 220.064 55.2708 216.699 59.4837 221.035C60.256 221.844 60.8719 222.789 61.3003 223.822C62.7856 227.314 62.0126 231.027 62.1286 234.707C62.2445 238.387 63.3212 242.155 66.1372 244.693C66.8104 245.327 67.617 245.802 68.498 246.084C69.3789 246.365 70.3118 246.446 71.2281 246.321C71.8526 246.224 72.4547 246.017 73.006 245.708C72.6835 237.744 71.7997 229.813 70.3612 221.973Z" fill="url(#paint34_linear)"/>
<path d="M66.5292 158.95C68.3403 154.36 70.5545 149.748 70.571 144.821C70.571 140.683 68.4397 136.231 64.8617 134.509C55.762 150.474 49.24 167.774 45.5363 185.77C44.8185 189.278 44.2 192.876 44.6638 196.429C45.1277 199.982 46.8228 203.535 49.8431 205.466C54.183 208.224 60.207 207.16 64.4697 210.051C68.2409 212.611 69.533 217.493 70.3667 221.973C71.8103 229.809 72.6996 237.737 73.0281 245.697C75.2367 244.45 76.2803 241.719 76.8932 239.198C78.511 232.445 78.3288 226.034 77.2245 219.264C76.0098 211.838 76.976 204.655 72.6085 197.996C71.2557 195.932 69.4501 194.067 67.1587 193.157C66.8702 193.042 66.5752 192.945 66.2752 192.865C64.521 192.435 62.9767 191.396 61.9179 189.933C60.859 188.471 60.3544 186.681 60.4942 184.881C61.2372 175.991 63.2702 167.256 66.5292 158.95Z" fill="url(#paint35_linear)"/>
</g>
<defs>
<linearGradient id="paint0_linear" x1="456.202" y1="365.641" x2="577.798" y2="365.641" gradientUnits="userSpaceOnUse">
<stop stop-color="#27003D"/>
<stop offset="1" stop-color="#028EA7"/>
</linearGradient>
<linearGradient id="paint1_linear" x1="332.337" y1="379.07" x2="395.672" y2="453.171" gradientUnits="userSpaceOnUse">
<stop offset="0.54" stop-color="#27003D"/>
<stop offset="0.61" stop-color="#23114A"/>
<stop offset="0.76" stop-color="#173E6B"/>
<stop offset="0.97" stop-color="#0485A0"/>
<stop offset="1" stop-color="#028EA7"/>
</linearGradient>
<linearGradient id="paint2_linear" x1="22093.8" y1="27179.5" x2="38365.3" y2="27179.5" gradientUnits="userSpaceOnUse">
<stop stop-color="#27003D"/>
<stop offset="1" stop-color="#028EA7"/>
</linearGradient>
<linearGradient id="paint3_linear" x1="363.738" y1="106.465" x2="368.138" y2="23.9055" gradientUnits="userSpaceOnUse">
<stop offset="0.24" stop-color="#27003D"/>
<stop offset="1" stop-color="#028EA7"/>
</linearGradient>
<linearGradient id="paint4_linear" x1="536.79" y1="118.873" x2="447.504" y2="548.205" gradientUnits="userSpaceOnUse">
<stop offset="0.17" stop-color="#27003D"/>
<stop offset="0.33" stop-color="#0F5B81"/>
<stop offset="0.43" stop-color="#028EA7"/>
<stop offset="0.52" stop-color="#0389A4"/>
<stop offset="0.58" stop-color="#05829E"/>
<stop offset="0.6" stop-color="#097292"/>
<stop offset="0.66" stop-color="#124F78"/>
<stop offset="0.71" stop-color="#1A3262"/>
<stop offset="0.77" stop-color="#201C52"/>
<stop offset="0.83" stop-color="#240C46"/>
<stop offset="0.9" stop-color="#26033F"/>
<stop offset="1" stop-color="#27003D"/>
</linearGradient>
<linearGradient id="paint5_linear" x1="57122.6" y1="19787.8" x2="64543.6" y2="19787.8" gradientUnits="userSpaceOnUse">
<stop stop-color="#27003D"/>
<stop offset="1" stop-color="#028EA7"/>
</linearGradient>
<linearGradient id="paint6_linear" x1="24139.1" y1="16626.2" x2="24828.2" y2="15726.2" gradientUnits="userSpaceOnUse">
<stop stop-color="#27003D"/>
<stop offset="1" stop-color="#028EA7"/>
</linearGradient>
<linearGradient id="paint7_linear" x1="-19652.8" y1="60099.8" x2="-18786.3" y2="60738.5" gradientUnits="userSpaceOnUse">
<stop stop-color="#27003D"/>
<stop offset="1" stop-color="#028EA7"/>
</linearGradient>
<linearGradient id="paint8_linear" x1="12326.2" y1="6427.48" x2="12207.9" y2="6253.04" gradientUnits="userSpaceOnUse">
<stop stop-color="#27003D"/>
<stop offset="1" stop-color="#028EA7"/>
</linearGradient>
<linearGradient id="paint9_linear" x1="6029.43" y1="2086.53" x2="5684.73" y2="2456.84" gradientUnits="userSpaceOnUse">
<stop stop-color="#27003D"/>
<stop offset="1" stop-color="#028EA7"/>
</linearGradient>
<linearGradient id="paint10_linear" x1="539.59" y1="242.871" x2="548.937" y2="189.696" gradientUnits="userSpaceOnUse">
<stop stop-color="#028EA7"/>
<stop offset="1" stop-color="#FFF8FC"/>
</linearGradient>
<linearGradient id="paint11_linear" x1="13797.7" y1="9980.12" x2="14123.2" y2="9943.92" gradientUnits="userSpaceOnUse">
<stop stop-color="#27003D"/>
<stop offset="1" stop-color="#028EA7"/>
</linearGradient>
<linearGradient id="paint12_linear" x1="15281.4" y1="8226.3" x2="15625.1" y2="8226.3" gradientUnits="userSpaceOnUse">
<stop stop-color="#27003D"/>
<stop offset="1" stop-color="#028EA7"/>
</linearGradient>
<linearGradient id="paint13_linear" x1="27078.2" y1="7998.51" x2="28276.1" y2="7998.51" gradientUnits="userSpaceOnUse">
<stop stop-color="#27003D"/>
<stop offset="1" stop-color="#028EA7"/>
</linearGradient>
<linearGradient id="paint14_linear" x1="3727.23" y1="22457.6" x2="5830.14" y2="24479.1" gradientUnits="userSpaceOnUse">
<stop stop-color="#27003D"/>
<stop offset="1" stop-color="#028EA7"/>
</linearGradient>
<linearGradient id="paint15_linear" x1="282.219" y1="410.116" x2="422.984" y2="382.885" gradientUnits="userSpaceOnUse">
<stop offset="0.17" stop-color="#27003D"/>
<stop offset="1" stop-color="#EE3A64"/>
</linearGradient>
<linearGradient id="paint16_linear" x1="63745.6" y1="39231.8" x2="64027.4" y2="41144" gradientUnits="userSpaceOnUse">
<stop stop-color="#27003D"/>
<stop offset="1" stop-color="#028EA7"/>
</linearGradient>
<linearGradient id="paint17_linear" x1="198.924" y1="159.992" x2="135.003" y2="230.018" gradientUnits="userSpaceOnUse">
<stop offset="0.03" stop-color="#028EA7"/>
<stop offset="1" stop-color="#27003D"/>
</linearGradient>
<linearGradient id="paint18_linear" x1="-176264" y1="151175" x2="-193860" y2="154589" gradientUnits="userSpaceOnUse">
<stop stop-color="#27003D"/>
<stop offset="1" stop-color="#028EA7"/>
</linearGradient>
<linearGradient id="paint19_linear" x1="-62952.1" y1="28142.9" x2="-63672.7" y2="28971.5" gradientUnits="userSpaceOnUse">
<stop stop-color="#27003D"/>
<stop offset="1" stop-color="#028EA7"/>
</linearGradient>
<linearGradient id="paint20_linear" x1="-34851.7" y1="38387.5" x2="-35084.9" y2="38300.6" gradientUnits="userSpaceOnUse">
<stop stop-color="#27003D"/>
<stop offset="1" stop-color="#028EA7"/>
</linearGradient>
<linearGradient id="paint21_linear" x1="-59321.8" y1="65078.9" x2="-60162.8" y2="64771.4" gradientUnits="userSpaceOnUse">
<stop stop-color="#27003D"/>
<stop offset="1" stop-color="#028EA7"/>
</linearGradient>
<linearGradient id="paint22_linear" x1="274.819" y1="39.6025" x2="73.6723" y2="173.315" gradientUnits="userSpaceOnUse">
<stop offset="0.22" stop-color="#27003D"/>
<stop offset="0.33" stop-color="#240C46"/>
<stop offset="0.53" stop-color="#1C2C5E"/>
<stop offset="0.78" stop-color="#0E5E84"/>
<stop offset="1" stop-color="#028EA7"/>
</linearGradient>
<linearGradient id="paint23_linear" x1="513.069" y1="159.789" x2="316.468" y2="74.5452" gradientUnits="userSpaceOnUse">
<stop stop-color="#028EA7"/>
<stop offset="1" stop-color="#27003D"/>
</linearGradient>
<linearGradient id="paint24_linear" x1="-97990.3" y1="-6717.26" x2="-97757.2" y2="-7987.41" gradientUnits="userSpaceOnUse">
<stop stop-color="#27003D"/>
<stop offset="1" stop-color="#028EA7"/>
</linearGradient>
<linearGradient id="paint25_linear" x1="316.689" y1="448.173" x2="440.212" y2="448.173" gradientUnits="userSpaceOnUse">
<stop stop-color="#27003D"/>
<stop offset="0.97" stop-color="#028EA7"/>
</linearGradient>
<linearGradient id="paint26_linear" x1="472.828" y1="301.559" x2="518.526" y2="225.594" gradientUnits="userSpaceOnUse">
<stop offset="0.28" stop-color="#008BA8"/>
<stop offset="0.43" stop-color="#467694"/>
<stop offset="0.58" stop-color="#826183"/>
<stop offset="0.71" stop-color="#B05075"/>
<stop offset="0.83" stop-color="#D2446C"/>
<stop offset="0.93" stop-color="#E73D66"/>
<stop offset="1" stop-color="#EE3A64"/>
</linearGradient>
<linearGradient id="paint27_linear" x1="512.782" y1="427.34" x2="460.952" y2="178.117" gradientUnits="userSpaceOnUse">
<stop offset="0.17" stop-color="#27003D"/>
<stop offset="0.33" stop-color="#0F5B81"/>
<stop offset="0.45" stop-color="#008BA7"/>
<stop offset="0.49" stop-color="#008BA7"/>
<stop offset="0.58" stop-color="#05829E"/>
<stop offset="0.6" stop-color="#097292"/>
<stop offset="0.66" stop-color="#124F78"/>
<stop offset="0.71" stop-color="#1A3262"/>
<stop offset="0.77" stop-color="#201C52"/>
<stop offset="0.83" stop-color="#240C46"/>
<stop offset="0.9" stop-color="#26033F"/>
<stop offset="1" stop-color="#27003D"/>
</linearGradient>
<linearGradient id="paint28_linear" x1="87226.9" y1="45741.1" x2="99626" y2="32987.5" gradientUnits="userSpaceOnUse">
<stop stop-color="#27003D"/>
<stop offset="1" stop-color="#028EA7"/>
</linearGradient>
<linearGradient id="paint29_linear" x1="66951.3" y1="35052.2" x2="80506.7" y2="35052.2" gradientUnits="userSpaceOnUse">
<stop stop-color="#27003D"/>
<stop offset="1" stop-color="#028EA7"/>
</linearGradient>
<linearGradient id="paint30_linear" x1="592.679" y1="285.432" x2="586.995" y2="165.262" gradientUnits="userSpaceOnUse">
<stop offset="0.05" stop-color="#27003D"/>
<stop offset="0.13" stop-color="#1F2055"/>
<stop offset="0.25" stop-color="#134D76"/>
<stop offset="0.36" stop-color="#0A6E8F"/>
<stop offset="0.45" stop-color="#05829E"/>
<stop offset="0.51" stop-color="#0389A3"/>
<stop offset="0.58" stop-color="#05809C"/>
<stop offset="0.69" stop-color="#0C6689"/>
<stop offset="0.83" stop-color="#173D6B"/>
<stop offset="0.99" stop-color="#260541"/>
<stop offset="1" stop-color="#27003D"/>
</linearGradient>
<linearGradient id="paint31_linear" x1="402.294" y1="37.298" x2="233.204" y2="32.0727" gradientUnits="userSpaceOnUse">
<stop offset="0.09" stop-color="#27003D"/>
<stop offset="0.29" stop-color="#1A3061"/>
<stop offset="0.49" stop-color="#10597F"/>
<stop offset="0.67" stop-color="#087695"/>
<stop offset="0.83" stop-color="#0488A2"/>
<stop offset="0.94" stop-color="#028EA7"/>
</linearGradient>
<linearGradient id="paint32_linear" x1="127.283" y1="372.62" x2="75.3844" y2="272.411" gradientUnits="userSpaceOnUse">
<stop stop-color="#27003D"/>
<stop offset="0.12" stop-color="#250944"/>
<stop offset="0.32" stop-color="#1E2256"/>
<stop offset="0.57" stop-color="#144A74"/>
<stop offset="0.85" stop-color="#05819D"/>
<stop offset="0.92" stop-color="#028EA7"/>
</linearGradient>
<linearGradient id="paint33_linear" x1="59.1304" y1="264.417" x2="48.8654" y2="129.747" gradientUnits="userSpaceOnUse">
<stop offset="0.24" stop-color="#27003D"/>
<stop offset="0.96" stop-color="#028EA7"/>
</linearGradient>
<linearGradient id="paint34_linear" x1="48.2844" y1="264.486" x2="64.4775" y2="72.6565" gradientUnits="userSpaceOnUse">
<stop offset="0.24" stop-color="#27003D"/>
<stop offset="0.59" stop-color="#028EA7"/>
</linearGradient>
<linearGradient id="paint35_linear" x1="76.1864" y1="251.363" x2="45.3894" y2="116.32" gradientUnits="userSpaceOnUse">
<stop offset="0.24" stop-color="#27003D"/>
<stop offset="0.96" stop-color="#028EA7"/>
</linearGradient>
<clipPath id="clip0">
<rect width="647" height="473" fill="white"/>
</clipPath>
</defs>
</svg>

