<?xml version="1.0" encoding="UTF-8" standalone="no"?>
<svg
   xmlns:dc="http://purl.org/dc/elements/1.1/"
   xmlns:cc="http://creativecommons.org/ns#"
   xmlns:rdf="http://www.w3.org/1999/02/22-rdf-syntax-ns#"
   xmlns:svg="http://www.w3.org/2000/svg"
   xmlns="http://www.w3.org/2000/svg"
   xmlns:sodipodi="http://sodipodi.sourceforge.net/DTD/sodipodi-0.dtd"
   xmlns:inkscape="http://www.inkscape.org/namespaces/inkscape"
   width="348"
   height="145"
   viewBox="0 0 348 145"
   fill="none"
   version="1.1"
   id="svg1280"
   sodipodi:docname="kantega logo whitish.svg"
   inkscape:version="1.0 (9f2f71dc58, 2020-08-02)">
  <metadata
     id="metadata1286">
    <rdf:RDF>
      <cc:Work
         rdf:about="">
        <dc:format>image/svg+xml</dc:format>
        <dc:type
           rdf:resource="http://purl.org/dc/dcmitype/StillImage" />
        <dc:title></dc:title>
      </cc:Work>
    </rdf:RDF>
  </metadata>
  <defs
     id="defs1284" />
  <sodipodi:namedview
     pagecolor="#ffffff"
     bordercolor="#666666"
     borderopacity="1"
     objecttolerance="10"
     gridtolerance="10"
     guidetolerance="10"
     inkscape:pageopacity="0"
     inkscape:pageshadow="2"
     inkscape:window-width="2560"
     inkscape:window-height="1412"
     id="namedview1282"
     showgrid="false"
     inkscape:zoom="3.612069"
     inkscape:cx="174"
     inkscape:cy="72.5"
     inkscape:window-x="1920"
     inkscape:window-y="0"
     inkscape:window-maximized="1"
     inkscape:current-layer="svg1280" />
  <path
     d="M101.275 107.036C100.384 107.036 99.2951 107.829 94.5427 107.829C63.7399 107.829 70.8466 73.1467 46.9799 66.8763C68.9819 61.9217 89.0917 39.6203 89.0917 33.383C89.0917 28.1256 85.1314 24.261 81.391 24.261C80.0544 24.261 61.5232 60.1325 37.134 62.9291C41.8754 50.6472 46.5014 40.4296 46.5014 35.6622C46.5014 27.9274 39.8677 23.8646 35.9074 23.8646C35.5114 23.8646 35.3133 23.9637 35.3133 24.261C35.3133 46.9642 16.1936 78.9821 16.1936 92.0679C16.1936 100.986 22.3377 105.55 26.0945 105.55C26.6886 105.55 26.8866 105.352 26.8866 104.757C26.8866 93.1964 30.6379 80.43 34.8623 68.8692C58.7895 73.2733 51.2153 115.459 84.8288 115.459C96.3194 115.459 101.963 109.216 101.963 107.631C101.968 107.235 101.671 107.036 101.275 107.036Z"
     fill="#ffffff"
     id="path1274"
     style="fill:#fff8fc;fill-opacity:1" />
  <path
     d="M333.539 74.523C327.126 80.7823 319.304 85.3296 314.078 86.9316C319.353 71.9521 326.29 55.2495 326.29 54.6934C326.29 53.2071 319.458 49.5406 318.468 49.5406C318.226 49.5406 317.478 50.8509 316.444 52.9593C314.106 51.0215 310.668 49.0452 307.093 49.0452C294.992 49.0452 280.844 65.3019 280.844 80.2703C280.844 91.2806 286.692 95.6352 292.632 95.6352C296.999 95.6352 300.883 92.6789 303.98 88.985C304.832 92.8386 307.709 95.6352 310.459 95.6352C316.51 95.6352 334.529 80.6667 334.529 75.5139C334.537 75.3817 334.517 75.2493 334.47 75.1254C334.423 75.0015 334.351 74.889 334.257 74.7954C334.164 74.7017 334.051 74.629 333.927 74.582C333.804 74.5351 333.671 74.5149 333.539 74.523ZM295.8 88.5996C293.6 88.5996 291.345 86.1168 291.345 80.964C291.345 68.8527 301.746 56.5762 309.568 54.5944C311.95 54.5944 313.308 56.2459 314.133 57.98C311.125 64.7403 307.329 74.1046 305.256 80.463C302.021 85.8361 298.331 88.5996 295.8 88.5996Z"
     fill="#ffffff"
     id="path1276"
     style="fill:#fff8fc;fill-opacity:1" />
  <path
     d="M274.211 49.5463C274.106 49.5463 273.364 51.0657 272.242 53.5265C269.921 51.4291 266.191 49.0508 262.225 49.0508C251.516 49.0508 239.002 61.7897 236.456 75.3874C223.122 86.3977 215.966 88.5998 210.818 88.5998C207.605 88.5998 202.875 87.0528 202.715 79.4667C204.956 80.7829 207.522 81.4393 210.119 81.3605C219.827 81.3605 232.704 74.2038 232.704 59.7528C232.704 55.2882 222.803 49.0453 218.342 49.0453C209.3 49.0453 194.976 62.1035 192.556 76.2187C187.1 80.7219 180.944 85.1921 177.342 86.8877C180.9 75.426 189.234 55.4643 194.613 42.296C217.886 40.8151 241.818 39.059 244.492 38.3213C245.592 38.024 246.571 37.0331 246.571 36.3395C246.571 35.844 246.373 35.6458 245.581 35.6458C244.481 35.6458 220.829 36.0752 197.083 36.1963C198.585 32.4363 199.525 29.9205 199.525 29.392C199.525 28.0983 192.886 24.2336 191.698 24.2336C191.445 24.2336 189.322 29.1167 186.384 36.2293C179.734 36.2293 173.337 36.2293 167.732 36.1303C145.444 36.1303 139.504 34.3466 137.617 34.3466C137.221 34.3466 136.924 34.6439 136.924 35.2384C136.924 40.6885 143.068 44.6577 149.504 44.6577C152.952 44.6963 167.182 43.9586 183.634 42.9676C179.168 53.9779 173.783 67.6692 170.015 77.65C165.345 81.2504 160.252 84.7627 156.572 86.4583C161.407 72.7835 166.539 58.7894 166.539 57.5067C166.539 54.1376 160.994 48.9848 158.717 48.9848C156.346 48.9848 148.42 53.3889 141.187 58.4646C141.984 56.191 142.474 54.7431 142.474 54.611C142.463 53.3999 135.642 49.5463 134.652 49.5463C133.8 49.5463 129.652 60.0446 123.552 76.1967C118.052 80.9752 112.188 85.0049 108.019 86.7335C112.738 71.8696 120.29 55.2551 120.29 54.6991C120.29 53.4109 113.459 49.5463 112.469 49.5463C112.243 49.5463 111.528 50.884 110.533 53.0366C108.195 51.0767 104.719 49.0508 101.077 49.0508C89.0917 49.0508 74.8289 65.0157 74.8289 80.276C74.8289 91.2863 80.6759 95.6409 86.6164 95.6409C91.2864 95.6409 95.4172 92.2607 98.591 88.2144C99.0641 92.4479 101.512 95.6409 104.444 95.6409C108.844 95.6409 115.164 90.2128 120.455 84.4324L118.112 90.6862C118.112 92.7672 123.464 95.6409 126.363 95.6409C127.463 95.7069 134.256 77.8317 138.668 65.6819C142.38 62.6045 149.295 57.4737 153.205 57.4737C153.998 57.4737 155.285 58.0738 155.285 59.2629C155.285 62.7311 147.457 82.456 145.675 86.6179C145.675 92.3708 150.032 95.6409 152.71 95.6409C156.049 95.6409 161.808 90.8128 167.155 85.5444L166.77 86.6455C166.77 92.3983 171.132 95.6684 173.805 95.6684C178.244 95.6684 186.049 87.8841 192.265 81.0412C192.65 89.5742 199.668 95.6684 206.984 95.6684C219.041 95.6684 229.64 86.5574 236.015 79.8686C236.015 80.0173 236.015 80.1604 236.015 80.3035C236.015 91.3138 241.962 95.6684 247.803 95.6684C250.806 95.6684 253.595 94.2646 256.054 92.1891C250.003 109.365 241.367 121.047 230.086 121.047C222.754 121.047 219.685 116.483 219.685 113.213C219.685 107.961 225.031 104.493 230.977 104.493C231.472 104.493 231.868 104.295 231.868 103.998C231.868 102.709 221.764 99.6321 203.266 99.6321C180.086 99.6321 159.586 103.205 140.373 109.943C138.393 110.637 134.031 114.7 134.031 119.957C134.031 122.236 135.417 124.912 136.011 124.912C136.605 124.912 146.313 117.083 164.536 111.331C182.288 105.549 200.956 103.107 219.596 104.13C216.593 105.501 212.776 108.622 212.776 114.898C212.776 121.047 217.825 128.281 230.009 128.281C250.707 128.281 258.832 114.204 264.772 98.5531C267.643 91.022 282.104 55.2331 282.104 54.7376C282.033 53.3999 275.399 49.5463 274.211 49.5463ZM89.7847 88.6328C87.5845 88.6328 85.3293 86.15 85.3293 80.9972C85.3293 68.8859 95.7308 56.6094 103.552 54.6275C106.061 54.6275 107.436 56.4387 108.25 58.294C105.907 63.8762 103.085 71.143 101.099 77.0114C97.5019 84.6636 92.8155 88.5998 89.7847 88.5998V88.6328ZM220.724 54.5945C230.333 56.2791 217.974 76.6151 208.243 76.6151C206.676 76.6151 204.641 76.0976 203.524 74.3249C205.911 66.7884 213.183 58.1673 220.724 54.5945ZM246.477 80.9641C246.477 68.8528 256.879 56.5764 264.701 54.5945C267.588 54.5945 268.98 56.9948 269.739 59.1032C267.159 64.9497 263.903 72.5248 261.175 79.0814C257.764 85.3683 253.672 88.5998 250.933 88.5998C248.755 88.5998 246.477 86.117 246.477 80.9641Z"
     fill="#ffffff"
     id="path1278"
     style="fill:#fff8fc;fill-opacity:1" />
</svg>
